<svg xmlns="http://www.w3.org/2000/svg" width="96" height="96" viewBox="0 0 96 96">
  <defs>
    <radialGradient id="ball" cx="34%" cy="25%" r="72%">
      <stop stop-color="#fff"/><stop offset=".7" stop-color="#d9f7ff"/><stop offset="1" stop-color="#82bdd8"/>
    </radialGradient>
    <filter id="shadow"><feDropShadow dx="0" dy="5" stdDeviation="4" flood-color="#061229" flood-opacity=".55"/></filter>
  </defs>
  <g filter="url(#shadow)">
    <circle cx="48" cy="45" r="39" fill="url(#ball)" stroke="#192a51" stroke-width="4"/>
    <path d="M48 25l13 10-5 16H40l-5-16z" fill="#5d3ec9"/>
    <path d="M48 25V8M61 35l17-7M56 51l12 15M40 51L28 66M35 35l-17-7" fill="none" stroke="#5d3ec9" stroke-width="5"/>
    <path d="M20 61l8 5-2 11M68 66l8-5 3 14M18 28l1-10 11-5M78 28l-1-10-11-5" fill="none" stroke="#ff5c80" stroke-width="5"/>
    <circle cx="35" cy="28" r="5" fill="#fff" opacity=".7"/>
  </g>
</svg>
