<svg xmlns="http://www.w3.org/2000/svg" width="80" height="160" viewBox="0 0 80 160">
  <defs>
    <linearGradient id="brick" x1="0" y1="0" x2="1" y2="1">
      <stop stop-color="#ff8757"/><stop offset=".55" stop-color="#b63b3e"/><stop offset="1" stop-color="#6d2038"/>
    </linearGradient>
  </defs>
  <rect x="3" y="3" width="74" height="154" rx="8" fill="#4d1730" stroke="#ffcf73" stroke-width="4"/>
  <g fill="url(#brick)" stroke="#702039" stroke-width="3">
    <rect x="7" y="8" width="31" height="25" rx="4"/><rect x="40" y="8" width="33" height="25" rx="4"/>
    <rect x="7" y="35" width="20" height="28" rx="4"/><rect x="29" y="35" width="44" height="28" rx="4"/>
    <rect x="7" y="65" width="40" height="27" rx="4"/><rect x="49" y="65" width="24" height="27" rx="4"/>
    <rect x="7" y="94" width="25" height="28" rx="4"/><rect x="34" y="94" width="39" height="28" rx="4"/>
    <rect x="7" y="124" width="38" height="28" rx="4"/><rect x="47" y="124" width="26" height="28" rx="4"/>
  </g>
  <path d="M45 20L33 48l13 15-17 23 14 21-18 28" fill="none" stroke="#fff0b3" stroke-opacity=".72" stroke-width="4"/>
</svg>
