<svg xmlns="http://www.w3.org/2000/svg" viewBox="0 0 180 320" role="img" aria-label="Side-view football goal">
  <defs>
    <linearGradient id="frame" x1="0" y1="0" x2="1" y2="0">
      <stop offset="0" stop-color="#91a9b6"/>
      <stop offset="0.42" stop-color="#f4fbff"/>
      <stop offset="0.72" stop-color="#c5dce5"/>
      <stop offset="1" stop-color="#7894a2"/>
    </linearGradient>
    <pattern id="net" width="22" height="22" patternUnits="userSpaceOnUse">
      <path d="M-5 5L5-5M-5 17L17-5M5 27L27 5M17 27L27 17" fill="none" stroke="#e9fbff" stroke-width="2.5" opacity=".82"/>
      <path d="M-5 17L5 27M-5 5L17 27M5-5L27 17M17-5L27 5" fill="none" stroke="#b9d9e2" stroke-width="1.6" opacity=".6"/>
    </pattern>
    <filter id="softShadow" x="-30%" y="-20%" width="170%" height="160%">
      <feDropShadow dx="2" dy="4" stdDeviation="3" flood-color="#061b27" flood-opacity=".35"/>
    </filter>
    <clipPath id="netClip">
      <path d="M21 45L149 57V299L21 306Z"/>
    </clipPath>
  </defs>

  <path d="M21 45L149 57V299L21 306Z" fill="#bdebf2" opacity=".1"/>
  <g clip-path="url(#netClip)">
    <rect x="13" y="37" width="146" height="276" fill="url(#net)"/>
  </g>

  <g fill="none" stroke-linecap="round" stroke-linejoin="round" filter="url(#softShadow)">
    <path d="M20 43V306" stroke="#506d7b" stroke-width="19"/>
    <path d="M20 43L151 56" stroke="#506d7b" stroke-width="19"/>
    <path d="M151 56V300" stroke="#506d7b" stroke-width="19"/>
    <path d="M20 306L151 300" stroke="#506d7b" stroke-width="17"/>

    <path d="M20 43V306" stroke="url(#frame)" stroke-width="13"/>
    <path d="M20 43L151 56" stroke="url(#frame)" stroke-width="13"/>
    <path d="M151 56V300" stroke="url(#frame)" stroke-width="13"/>
    <path d="M20 306L151 300" stroke="url(#frame)" stroke-width="11"/>

    <path d="M16 45V301M22 47L146 59" stroke="#ffffff" stroke-width="2.5" opacity=".72"/>
    <path d="M147 61V294" stroke="#ffffff" stroke-width="2.5" opacity=".68"/>
  </g>

  <ellipse cx="87" cy="310" rx="78" ry="7" fill="#0b2631" opacity=".18"/>
</svg>
